#tb 0: 1/25
#media_type 0: video
#codec_id 0: rawvideo
#dimensions 0: 192x128
#sar 0: 0/1
0,          0,          0,        1,    36864, 0x9b5dcf28
0,          1,          1,        1,    36864, 0xb13d4fee
0,          2,          2,        1,    36864, 0x11c512ac
0,          3,          3,        1,    36864, 0xc013b0e3
0,          4,          4,        1,    36864, 0x25002dae
0,          5,          5,        1,    36864, 0xefd0055a
0,          6,          6,        1,    36864, 0x6be2d3b2
0,          7,          7,        1,    36864, 0xa8a0d525
0,          8,          8,        1,    36864, 0x1bf942e8
0,          9,          9,        1,    36864, 0x5c08c94f
0,         10,         10,        1,    36864, 0x5555e762
0,         11,         11,        1,    36864, 0xcc1429c7
0,         12,         12,        1,    36864, 0xa3cc1535
0,         13,         13,        1,    36864, 0x14dc2b75
0,         14,         14,        1,    36864, 0x6b965ce9
0,         15,         15,        1,    36864, 0x7424d19b
0,         16,         16,        1,    36864, 0xcada6a7f
